<?xml version="1.0" encoding="utf-8"?>
<!-- Generator: Adobe Illustrator 25.4.8, SVG Export Plug-In . SVG Version: 6.00 Build 0)  -->
<svg version="1.1" id="Livello_1" xmlns="http://www.w3.org/2000/svg" xmlns:xlink="http://www.w3.org/1999/xlink" x="0px" y="0px"
	 viewBox="0 0 344 136.6" style="enable-background:new 0 0 344 136.6;" xml:space="preserve">
<style type="text/css">
	.st0{fill:#FFFFFF;}
</style>
<path class="st0" d="M68.62,81.33l-4.64,4.63c-0.03,0.03-0.04,0.06-0.04,0.1c0,0.04,0.01,0.07,0.04,0.1l0.2,0.2
	c0.65,0.65,1.52,1.02,2.42,1.03c0.9,0.01,1.77-0.34,2.4-0.97l0.07-0.07c0.63-0.63,0.98-1.5,0.97-2.4c-0.01-0.91-0.38-1.78-1.03-2.42
	l-0.2-0.2c-0.03-0.03-0.06-0.04-0.1-0.04C68.68,81.29,68.65,81.31,68.62,81.33 M51.71,85.99l-4.69-4.68
	c-0.02-0.02-0.05-0.03-0.08-0.03c-0.03,0-0.06,0.01-0.08,0.03l-0.23,0.23c-0.64,0.65-1.01,1.52-1.02,2.42
	c-0.01,0.9,0.34,1.77,0.97,2.4l0.07,0.07c0.63,0.63,1.5,0.98,2.4,0.97c0.9-0.01,1.77-0.38,2.42-1.03l0.23-0.23
	c0.02-0.02,0.03-0.05,0.03-0.08S51.73,86.01,51.71,85.99 M57.93,70.43c-0.02-0.02-0.06-0.04-0.09-0.04c-0.03,0-0.07,0.01-0.09,0.04
	l-4.66,4.66c-0.03,0.02-0.04,0.06-0.04,0.09c0,0.03,0.01,0.07,0.04,0.09l4.66,4.67c0.02,0.02,0.06,0.04,0.09,0.04
	c0.03,0,0.07-0.01,0.09-0.04l4.66-4.67c0.03-0.02,0.04-0.06,0.04-0.09c0-0.03-0.01-0.07-0.04-0.09L57.93,70.43z M53.43,87.31
	c-1.12,1.48-2.66,2.18-4.64,2.12c-1.92-0.06-3.59-1.05-4.48-2.66c-1.37-2.49-1.03-4.78,1.04-6.87c2.14-2.17,5.76-5.79,10.85-10.86
	c0.11-0.11,0.11-0.22,0-0.33l-0.5-0.5c-0.11-0.11-0.21-0.11-0.32,0c-3.08,3.09-6.18,6.19-9.31,9.31c-1.74,1.73-2.79,3-3.15,3.79
	c-1.44,3.15,0,7.01,3.05,8.57c1.48,0.76,3.07,0.92,4.75,0.49c1.68-0.42,2.9-1.25,3.65-2.48c0.98-1.6,0.77-3.09-0.65-4.44
	c-0.17-0.16-1.62-1.61-4.35-4.35c-0.1-0.1-0.2-0.1-0.3,0l-0.52,0.52c-0.04,0.04-0.06,0.09-0.06,0.15c0,0.05,0.02,0.1,0.06,0.14
	c2.58,2.55,4.13,4.11,4.64,4.7C53.92,85.44,54.18,86.32,53.43,87.31 M63.98,64.42l4.64,4.62c0.03,0.03,0.07,0.04,0.11,0.04
	c0.04,0,0.08-0.02,0.11-0.04l0.2-0.19c0.65-0.65,1.01-1.52,1.02-2.43c0.01-0.9-0.34-1.77-0.98-2.4L69,63.94
	c-0.63-0.63-1.5-0.98-2.4-0.96c-0.9,0.01-1.77,0.38-2.42,1.03l-0.2,0.19c-0.03,0.03-0.04,0.07-0.04,0.11
	C63.94,64.35,63.95,64.39,63.98,64.42 M47.05,69.04l4.64-4.62c0.03-0.03,0.05-0.07,0.05-0.11c0-0.04-0.01-0.08-0.04-0.11L51.48,64
	c-0.64-0.65-1.51-1.01-2.41-1.03c-0.9-0.01-1.76,0.33-2.39,0.96l-0.1,0.1c-0.63,0.63-0.98,1.49-0.97,2.39
	c0.01,0.9,0.38,1.77,1.02,2.42l0.21,0.2c0.03,0.03,0.06,0.04,0.1,0.05C46.98,69.08,47.02,69.07,47.05,69.04 M57.92,88.81
	c1.88,3,4.46,4.66,7.75,4.98c1.81,0.17,3.51-0.11,5.1-0.84c3.74-1.72,6.12-5.81,5.73-9.89c-0.22-2.32-1.28-4.43-3.18-6.32
	c-0.04-0.04-0.08-0.04-0.12,0l-0.65,0.65c-0.02,0.02-0.04,0.06-0.04,0.09c0,0.03,0.01,0.07,0.04,0.09c3.22,3.25,3.84,7.62,1.22,11.4
	c-0.97,1.41-2.24,2.43-3.79,3.07c-3.97,1.62-8.51,0.17-10.81-3.43c-1.26-1.96-0.92-4.37,0.59-5.93c0.88-0.9,4.25-4.27,10.11-10.11
	c1.56-1.55,2.53-2.77,2.93-3.67c0.9-2.06,0.68-4.12-0.66-6.19c-0.88-1.35-2.27-2.39-3.77-2.72c-2.51-0.56-4.66,0-6.46,1.69
	c-0.24,0.22-0.24,0.44-0.01,0.67l0.31,0.31c0.12,0.12,0.25,0.12,0.37,0c1.22-1.26,2.7-1.83,4.46-1.7c2.06,0.14,3.48,1.13,4.49,2.94
	c1.33,2.38,0.54,4.92-1.3,6.73c-2.48,2.45-6.19,6.16-11.13,11.11c-0.45,0.45-0.86,1.09-1.17,1.5c-0.08,0.1-0.15,0.1-0.22,0
	c-0.36-0.53-0.65-1-1.03-1.39c-1.49-1.52-3.18-3.22-5.07-5.08c-0.06-0.06-0.11-0.06-0.17,0l-0.55,0.55c-0.12,0.12-0.12,0.23,0,0.35
	c1.47,1.46,2.94,2.94,4.43,4.44c1.64,1.66,2.39,3.23,1.57,5.49c-1.61,4.44-7.27,6.25-11.44,4.35c-1.75-0.8-3.11-2.08-4.08-3.83
	c-1.86-3.38-1.28-7.37,1.39-10.13c2.28-2.36,6.01-6.1,11.18-11.23c0.11-0.11,0.11-0.21,0-0.32l-0.49-0.49c-0.1-0.1-0.21-0.1-0.31,0
	c-4.51,4.48-8.13,8.11-10.86,10.89c-3.93,4-4.24,9.54-0.47,13.8c1.36,1.55,3,2.52,4.92,2.93c3.81,0.81,7.05-0.17,9.69-2.95
	c0.46-0.48,0.92-1.14,1.25-1.78C57.73,88.66,57.82,88.66,57.92,88.81 M64.82,73.05c0.04-0.03,0.06-0.08,0.06-0.13
	c0-0.05-0.02-0.1-0.06-0.13c-5.2-5.22-8.93-8.94-11.19-11.17c-1.1-1.09-2.44-1.69-4.01-1.79c-2.77-0.18-4.86,0.87-6.28,3.17
	c-1.74,2.81-1.13,5.99,1.17,8.3c0.04,0.04,0.09,0.06,0.15,0.06s0.11-0.02,0.15-0.06l0.53-0.53c0.09-0.09,0.09-0.18,0-0.27
	c-1.76-1.81-2.45-4.08-1.3-6.41c1.36-2.76,4.34-3.84,7.15-2.75c0.61,0.24,1.5,0.93,2.66,2.09c3.41,3.4,6.79,6.79,10.15,10.16
	c0.04,0.04,0.09,0.06,0.15,0.06c0.06,0,0.11-0.02,0.15-0.06L64.82,73.05z M62.99,88.12c-1.17-1.02-1.95-2.17-0.58-3.54
	c5.67-5.64,9.37-9.35,11.1-11.13c3.64-3.73,4.08-8.9,0.93-13.07c-3.67-4.85-10.68-5.11-14.94-0.87c-0.06,0.06-0.1,0.15-0.09,0.24
	s0.04,0.17,0.11,0.23l0.44,0.4c0.11,0.1,0.21,0.1,0.31-0.01c2.93-2.9,7.12-3.56,10.7-1.57c1.46,0.81,2.62,2.06,3.49,3.76
	c1.3,2.56,1.32,5.08,0.06,7.57c-0.54,1.07-1.8,2.59-3.77,4.54c-4.21,4.18-7.25,7.21-9.12,9.1c-1.36,1.38-1.48,2.78-0.35,4.2
	c1.4,1.76,3.23,2.63,5.5,2.6c1.21-0.01,2.27-0.3,3.2-0.84c1.04-0.62,1.85-1.44,2.42-2.47c1.6-2.88,1.06-5.83-1.26-8.19
	c-0.1-0.11-0.21-0.11-0.31,0l-0.5,0.54c-0.08,0.09-0.08,0.18,0,0.26c2.03,2.17,2.4,4.41,1.12,6.71c-0.98,1.76-2.52,2.76-4.52,2.84
	C65.38,89.5,64.07,89.07,62.99,88.12 M43.14,72.95c0.04-0.04,0.04-0.08,0-0.12c-3.14-3.11-3.84-7.35-1.46-11.12
	c2.4-3.79,7.17-5.1,11.26-3.14c0.91,0.44,2.22,1.51,3.9,3.22c2.06,2.08,5.2,5.24,9.42,9.47c0.04,0.04,0.11,0.07,0.17,0.07
	c0.06,0,0.12-0.03,0.17-0.07l0.48-0.47c0.11-0.11,0.11-0.22,0-0.33c-6.73-6.73-10.16-10.16-10.3-10.3c-1.07-1.1-2.01-1.87-2.82-2.31
	c-1.33-0.73-2.54-1.14-3.62-1.24c-3.38-0.31-6.12,0.62-8.23,2.78c-1.52,1.56-2.47,3.32-2.84,5.29c-0.41,2.19-0.06,4.29,1.04,6.31
	c0.46,0.84,1.12,1.72,2,2.66c0.02,0.02,0.04,0.03,0.07,0.03c0.02,0,0.05-0.01,0.06-0.03L43.14,72.95z M57.83,58.2
	c0.01,0,0.02,0,0.04-0.01c3.48-3.31,7.37-4.44,11.67-3.38c2.14,0.52,3.98,1.57,5.55,3.13c1.57,1.56,2.61,3.41,3.13,5.55
	c1.05,4.31-0.08,8.2-3.39,11.67c-0.01,0.01-0.02,0.02-0.02,0.04c0,0.01,0.01,0.03,0.02,0.04c3.31,3.48,4.43,7.37,3.38,11.67
	c-0.52,2.14-1.57,3.99-3.13,5.55c-1.56,1.56-3.41,2.61-5.55,3.13c-4.31,1.05-8.2-0.08-11.67-3.39c-0.01-0.01-0.02-0.02-0.04-0.02
	c-0.01,0-0.03,0.01-0.04,0.02c-3.48,3.31-7.37,4.43-11.67,3.38c-2.13-0.52-3.98-1.56-5.55-3.13c-1.56-1.56-2.6-3.41-3.12-5.55
	c-1.05-4.31,0.08-8.2,3.39-11.67c0.01-0.01,0.02-0.02,0.02-0.04c0-0.01-0.01-0.03-0.02-0.04c-3.31-3.48-4.43-7.37-3.38-11.67
	c0.52-2.14,1.56-3.99,3.13-5.55c1.56-1.56,3.41-2.61,5.55-3.13c4.31-1.05,8.2,0.08,11.67,3.39C57.81,58.2,57.82,58.2,57.83,58.2"/>
<path class="st0" d="M100.5,66.69c0.26,0.26,0.38,0.21,0.34-0.16c-0.05-0.57-0.05-0.94,0.02-1.12c0.04-0.11,0.12-0.15,0.23-0.11
	c0.04,0.01,0.09,0.04,0.13,0.08c0.02,0.02,0.03,0.04,0.03,0.07v3.52c0,0.09-0.04,0.13-0.13,0.13h-0.14c-0.09,0-0.13-0.04-0.14-0.13
	c-0.05-0.94-0.45-1.79-1.2-2.54c-1.95-1.96-3.1-3.07-3.46-3.35c-0.14-0.11-0.26-0.18-0.36-0.22c-0.11-0.04-0.22-0.02-0.31,0.04
	c-0.09,0.06-0.15,0.17-0.14,0.28c-0.01,3.54-0.01,7.11,0,10.69c0,1.28,0.97,1.38,2.06,1.44c0.03,0,0.07,0.02,0.09,0.04
	c0.02,0.02,0.04,0.06,0.04,0.09v0.15c0,0.04-0.01,0.07-0.04,0.1c-0.03,0.03-0.06,0.04-0.1,0.04h-5.86c-0.1,0-0.15-0.05-0.15-0.15
	v-0.16c0-0.11,0.06-0.16,0.17-0.16c0.63,0.04,1.12-0.1,1.49-0.43c0.22-0.2,0.33-0.62,0.33-1.27c0.01-5.37,0.01-10.29,0-14.78
	c0-1.5-0.74-1.4-1.87-1.62c-0.07-0.01-0.11-0.06-0.11-0.14v-0.14c0-0.04,0.02-0.06,0.06-0.06c0.57-0.01,3.94,0,10.12,0.03
	c1.41,0.01,2.01,0.76,1.79,2.24c-0.01,0.04-0.03,0.08-0.06,0.11c-0.03,0.03-0.07,0.04-0.11,0.04h-0.15c-0.08,0-0.16-0.03-0.21-0.09
	c-0.05-0.06-0.08-0.14-0.07-0.22c0.12-1.14-0.43-1.71-1.65-1.71c-2.31,0.01-3.85,0.02-4.61,0.03c-0.31,0.01-0.6,0.13-0.82,0.35
	c-0.22,0.22-0.34,0.51-0.34,0.82v2.96c0,0.12,0.04,0.22,0.12,0.3L100.5,66.69z"/>
<path class="st0" d="M106.31,66.27c0,4.15,1.63,9.48,6.62,9.47c4.99,0,6.6-5.33,6.6-9.49c0-4.15-1.62-9.48-6.61-9.47
	C107.92,56.79,106.31,62.11,106.31,66.27 M104.19,66.29c-0.01-2.38,0.43-4.49,1.71-6.47c0.6-0.94,1.32-1.67,2.15-2.2
	c1.42-0.91,3.12-1.29,4.82-1.29c1.7-0.01,3.4,0.36,4.83,1.25c0.83,0.52,1.56,1.25,2.17,2.18c1.3,1.97,1.76,4.08,1.77,6.46
	c0.01,2.39-0.43,4.5-1.71,6.48c-0.61,0.93-1.32,1.67-2.15,2.2c-1.42,0.91-3.13,1.29-4.82,1.29c-1.7,0-3.4-0.35-4.83-1.26
	c-0.83-0.52-1.56-1.25-2.17-2.18C104.66,70.79,104.21,68.68,104.19,66.29"/>
<path class="st0" d="M136.76,73.02c0.35,0.17,0.52,0.01,0.51-0.48c-0.01-0.78-0.03-5.36-0.05-13.74c0-1.46-0.65-1.44-1.82-1.61
	c-0.1-0.02-0.15-0.07-0.17-0.17c-0.01-0.04,0.01-0.09,0.04-0.14c0.03-0.05,0.07-0.07,0.13-0.07h4.65c0.04,0,0.07,0.01,0.09,0.04
	c0.02,0.02,0.04,0.06,0.04,0.09v0.19c0,0.08-0.04,0.11-0.11,0.1c-0.71-0.1-1.25,0.04-1.6,0.44c-0.19,0.21-0.28,0.67-0.28,1.39
	c0,5.25,0,10.49,0,15.72c0,0.7-0.17,1.24-0.98,1.14c-0.59-0.07-0.92-0.35-1.26-0.88c-3.18-4.93-6.37-9.87-9.55-14.8
	c-0.14-0.21-0.27-0.37-0.4-0.48c-0.05-0.04-0.12-0.07-0.19-0.06c-0.07,0-0.13,0.03-0.18,0.08c-0.05,0.05-0.07,0.12-0.07,0.18
	c-0.01,5.1-0.01,9.64-0.01,13.64c0,2.04-0.84,2.22-2.76,2.08c-0.1-0.01-0.16-0.06-0.16-0.17v-0.14c0-0.04,0.02-0.08,0.04-0.1
	c0.03-0.03,0.07-0.04,0.11-0.04c0.63,0.05,1.13-0.09,1.5-0.42c0.22-0.2,0.33-0.63,0.33-1.28c0-4.98,0-9.92,0-14.81
	c0-0.8-0.29-1.34-1.09-1.45c-0.01,0-0.26-0.03-0.77-0.07c-0.08-0.01-0.12-0.05-0.12-0.12v-0.1c0-0.08,0.04-0.12,0.11-0.12
	c1.07-0.11,2.09-0.05,3.06,0.19c0.36,0.09,0.73,0.41,1.09,0.96c2.24,3.38,5.49,8.34,9.74,14.89
	C136.64,72.94,136.7,72.99,136.76,73.02"/>
<path class="st0" d="M151.79,74.53c0.86-0.39,1.6-0.89,2.24-1.5c0.76-0.88,1.33-1.87,1.71-2.97c0.77-2.32,0.88-4.69,0.31-7.1
	c-1.24-5.39-6.39-5.92-10.91-5.73c-0.03,0-0.07,0.02-0.09,0.04c-0.02,0.02-0.04,0.06-0.04,0.09v17.44c0,0.13,0.06,0.2,0.19,0.21
	C147.43,75.2,149.62,75.04,151.79,74.53 M157.64,61.4l0.76,2.73l0.02,3.83c-0.24,1.29-0.67,2.47-1.32,3.55
	c-0.49,1.07-1.22,1.94-2.19,2.59c-0.76,0.55-1.64,0.98-2.63,1.28l-4.22,0.4l-7.06-0.05c0.07-0.35,0.17-0.52,0.33-0.51
	c1.17,0.11,1.76-0.44,1.75-1.63c-0.05-6.76-0.05-11.67-0.01-14.76c0.02-1.18-0.6-1.71-1.84-1.59c-0.11,0.01-0.16-0.04-0.16-0.15
	v-0.15c0-0.05,0.03-0.08,0.08-0.08c1.67-0.04,4.33-0.05,7.96-0.02C152.65,56.85,155.98,58.03,157.64,61.4"/>
<path class="st0" d="M166.67,61.08l-1.07,2.66l-2.06,5.2c-0.09,0.24-0.04,0.28,0.16,0.12l3.39-2.65l2.44-1.86
	c-0.28-1.68-0.83-3.34-1.65-4.97c-0.05-0.1-0.15-0.16-0.26-0.17c-0.11-0.01-0.21,0.05-0.28,0.14
	C166.96,60.1,166.74,60.61,166.67,61.08 M167.99,56.36c0.47,0.17,0.74,0.32,0.81,0.43c0.24,0.45,0.44,0.84,0.58,1.17
	c2.15,5.51,4.28,10.94,6.39,16.3c0.25,0.63,0.67,0.96,1.26,1.01c0.07,0.01,0.11,0.04,0.11,0.12v0.2c0,0.08-0.04,0.12-0.12,0.12
	h-4.81c-0.11,0-0.16-0.05-0.15-0.16l0.01-0.12c0.01-0.09,0.06-0.14,0.15-0.15c0.77-0.07,1.83-0.12,1.4-1.22c-1.18-3-2.36-6-3.54-9
	c-0.05-0.13-0.14-0.16-0.25-0.08l-0.58,0.37c-1.62,1.21-3.21,2.44-4.78,3.68c-0.97,0.77-1.64,1.72-1.99,2.87
	c-0.33,0.78-0.7,1.66-1.1,2.64c-0.31,0.75-0.9,1.14-1.76,1.18c-0.15,0.01-0.22-0.07-0.22-0.22V75.4c0-0.03,0.01-0.07,0.04-0.09
	c0.02-0.03,0.06-0.04,0.09-0.05c0.58-0.06,0.96-0.29,1.13-0.68c0.31-0.72,0.62-1.46,0.92-2.22l0.92-2.4l1.63-4.06l1.35-3.46
	L167.99,56.36z"/>
<path class="st0" d="M181.45,56.82l8.83-0.02c0.05,0,0.11,0.02,0.15,0.06c0.04,0.04,0.06,0.09,0.07,0.14
	c0.02,0.28-0.02,0.56-0.18,0.81c-2.13,3.41-5.54,8.87-10.22,16.37c-0.07,0.11-0.09,0.24-0.07,0.36c0.02,0.13,0.09,0.24,0.19,0.32
	c0.16,0.13,0.43,0.19,0.8,0.2c2.81,0.02,5.31,0.02,7.52-0.02c1.23-0.02,1.29-0.97,1.27-1.92c0-0.15,0.07-0.22,0.22-0.21l0.24,0.03
	c0.12,0.01,0.18,0.08,0.18,0.2v2.37c0,0.14-0.07,0.21-0.21,0.21h-12.35c-0.11,0-0.23-0.04-0.31-0.11c-0.09-0.08-0.15-0.18-0.16-0.29
	c-0.02-0.11,0.01-0.23,0.07-0.33l10.46-16.72c0.15-0.24,0.18-0.51,0.1-0.75c-0.06-0.16-0.25-0.24-0.58-0.25
	c-1.67-0.05-3.74-0.05-6.23-0.01c-1.43,0.02-2.56-0.16-2.61,1.53c0,0.16-0.03,0.28-0.09,0.36c-0.15,0.21-0.31,0.19-0.48-0.05
	l-0.03-1.92c0-0.09,0.03-0.18,0.1-0.25c0.07-0.07,0.15-0.1,0.25-0.1H181.45z"/>
<path class="st0" d="M193.38,73.76c0.07-6.75,0.08-11.8,0.03-15.14c-0.02-1.07-0.62-1.53-1.8-1.36c-0.09,0.01-0.14-0.03-0.14-0.12
	v-0.14c0-0.1,0.05-0.14,0.14-0.15c1.07-0.04,1.8-0.06,2.18-0.04c1.03,0.03,1.54,0.58,1.55,1.65c0.07,8.64,0.08,13.75,0.02,15.33
	c-0.05,1.24,0.88,1.39,1.9,1.53c0.05,0,0.08,0.03,0.1,0.08l0.04,0.11c0.02,0.05,0.01,0.1-0.01,0.15c-0.03,0.04-0.08,0.07-0.13,0.07
	h-5.65c-0.11,0-0.16-0.05-0.16-0.16v-0.16c0-0.05,0.02-0.1,0.06-0.13s0.08-0.05,0.13-0.04c0.57,0.04,1.03-0.07,1.39-0.33
	C193.26,74.74,193.37,74.36,193.38,73.76"/>
<path class="st0" d="M200.38,66.26c0,4.15,1.62,9.48,6.61,9.47c4.99,0,6.61-5.33,6.6-9.48c0-4.15-1.62-9.48-6.61-9.48
	C201.99,56.78,200.38,62.11,200.38,66.26 M206.95,56.32c1.7-0.01,3.4,0.36,4.84,1.25c0.83,0.52,1.56,1.25,2.17,2.18
	c1.3,1.97,1.76,4.08,1.77,6.46c0.01,2.38-0.43,4.5-1.71,6.48c-0.61,0.94-1.32,1.67-2.15,2.2c-1.43,0.91-3.13,1.29-4.83,1.29
	c-1.7,0.01-3.4-0.36-4.83-1.26c-0.83-0.52-1.56-1.25-2.17-2.18c-1.3-1.97-1.76-4.08-1.77-6.46c-0.01-2.38,0.43-4.49,1.71-6.48
	c0.61-0.93,1.32-1.67,2.15-2.2C203.55,56.71,205.25,56.33,206.95,56.32"/>
<path class="st0" d="M230.83,73.03c0.35,0.17,0.52,0.01,0.51-0.48c-0.02-0.78-0.03-5.36-0.06-13.75c0-1.46-0.65-1.44-1.82-1.61
	c-0.1-0.01-0.15-0.07-0.17-0.17c-0.01-0.04,0.01-0.09,0.04-0.14c0.03-0.04,0.07-0.07,0.13-0.07h4.65c0.03,0,0.07,0.01,0.09,0.04
	c0.02,0.02,0.04,0.06,0.04,0.09v0.19c0,0.08-0.04,0.11-0.11,0.1c-0.71-0.1-1.25,0.04-1.6,0.43c-0.19,0.21-0.28,0.67-0.28,1.39v15.73
	c0,0.7-0.17,1.23-0.98,1.14c-0.59-0.07-0.93-0.35-1.27-0.87c-3.19-4.94-6.37-9.88-9.55-14.81c-0.14-0.21-0.27-0.37-0.4-0.48
	c-0.05-0.04-0.12-0.07-0.19-0.06c-0.07,0-0.13,0.03-0.18,0.08c-0.05,0.05-0.07,0.12-0.07,0.18c-0.01,5.1-0.01,9.65-0.01,13.65
	c0,2.04-0.84,2.22-2.76,2.08c-0.1-0.01-0.15-0.06-0.15-0.17v-0.14c0-0.04,0.02-0.08,0.05-0.1c0.03-0.03,0.07-0.04,0.11-0.04
	c0.63,0.05,1.13-0.09,1.5-0.42c0.22-0.2,0.33-0.63,0.33-1.28c0-4.98,0-9.92,0-14.82c0-0.81-0.29-1.34-1.09-1.46
	c-0.01,0-0.26-0.03-0.77-0.07c-0.08-0.01-0.12-0.05-0.12-0.12v-0.1c0-0.08,0.04-0.12,0.11-0.12c1.07-0.11,2.09-0.05,3.06,0.19
	c0.36,0.09,0.73,0.41,1.1,0.96c2.25,3.38,5.49,8.34,9.74,14.9C230.72,72.95,230.77,73,230.83,73.03"/>
<path class="st0" d="M244.69,66.58v-1.31c0-0.11,0.05-0.16,0.16-0.16H245c0.04,0,0.07,0.01,0.1,0.04c0.03,0.03,0.04,0.06,0.04,0.1
	v3.54c0,0.08-0.04,0.12-0.12,0.12h-0.11c-0.11,0-0.18-0.06-0.19-0.17c-0.07-0.94-0.44-1.73-1.12-2.37c-1.86-1.75-3.01-2.8-3.45-3.17
	c-0.21-0.18-0.39-0.3-0.54-0.37c-0.12-0.06-0.25-0.05-0.36,0.02c-0.11,0.07-0.17,0.19-0.17,0.32v10.46c0,0.96,0.48,1.44,1.43,1.46
	c2.3,0.04,4.07,0.04,5.31-0.01c1.11-0.04,1.58-0.65,1.4-1.84c-0.01-0.08,0.01-0.16,0.06-0.22c0.05-0.06,0.13-0.09,0.21-0.09h0.15
	c0.04,0,0.07,0.01,0.1,0.04c0.03,0.02,0.05,0.06,0.06,0.09c0.24,1.18,0.01,1.97-0.67,2.37c-0.33,0.2-1.02,0.3-2.07,0.3
	c-3.28-0.01-6.56-0.01-9.82-0.02c-0.1,0-0.15-0.05-0.15-0.15v-0.12c0-0.05,0.02-0.11,0.06-0.14c0.04-0.04,0.09-0.06,0.15-0.06
	c0.57,0.03,1.04-0.1,1.42-0.38c0.25-0.18,0.38-0.59,0.38-1.21c-0.01-1.85,0.01-6.81,0.03-14.87c0-1.16-0.61-1.7-1.84-1.6
	c-0.11,0.01-0.17-0.04-0.17-0.15v-0.1c0-0.09,0.04-0.13,0.13-0.13c2.52,0,5.89,0,10.13,0.01c1.44,0,2.07,0.74,1.91,2.21
	c-0.01,0.06-0.03,0.11-0.07,0.14c-0.04,0.04-0.1,0.06-0.15,0.06h-0.16c-0.21,0-0.3-0.1-0.28-0.31c0.15-1.14-0.3-1.71-1.36-1.71
	c-2.32,0.01-3.99,0.01-5,0.02c-0.32,0-0.62,0.13-0.85,0.36c-0.23,0.23-0.35,0.53-0.35,0.85v2.86c0,0.18,0.07,0.34,0.2,0.46
	l5.26,4.87c0.02,0.02,0.04,0.02,0.06,0.02c0.02,0,0.05-0.01,0.06-0.03C244.69,66.62,244.69,66.6,244.69,66.58"/>
<path class="st0" d="M92.56,90.08v2.72c0,0.03,0.01,0.07,0.04,0.09c0.03,0.02,0.06,0.04,0.1,0.04h1.24c0.43,0,0.84-0.15,1.15-0.41
	c0.3-0.26,0.48-0.62,0.48-1v-0.17c0-0.37-0.17-0.73-0.48-1c-0.3-0.26-0.72-0.41-1.15-0.41h-1.24c-0.04,0-0.07,0.01-0.1,0.04
	C92.57,90.01,92.56,90.04,92.56,90.08 M92.56,86.81v1.87c0,0.04,0.01,0.07,0.04,0.1c0.03,0.03,0.07,0.04,0.1,0.04h0.82
	c0.32,0,0.62-0.11,0.85-0.3c0.23-0.19,0.35-0.46,0.35-0.73V87.7c0-0.28-0.13-0.54-0.35-0.73c-0.22-0.19-0.53-0.3-0.85-0.3H92.7
	c-0.04,0-0.08,0.01-0.1,0.04C92.57,86.73,92.56,86.77,92.56,86.81 M95.59,89.32c1.31,0.73,1.41,2.75,0.58,3.73
	c-1.01,1.19-2.63,1.05-4.19,0.98c-0.38-0.01-0.57-0.21-0.57-0.59v-7.47c0-0.1,0.04-0.19,0.1-0.27c0.07-0.07,0.16-0.12,0.26-0.14
	c0.34-0.04,0.89-0.06,1.64-0.05c0.62,0,1.13,0.15,1.53,0.44c1.04,0.75,1.22,1.77,0.56,3.05C95.43,89.15,95.46,89.25,95.59,89.32"/>
<path class="st0" d="M120.28,89.79c0-0.83-0.33-1.62-0.93-2.21c-0.59-0.59-1.4-0.92-2.24-0.92c-0.84,0-1.65,0.33-2.24,0.92
	c-0.59,0.59-0.93,1.38-0.93,2.21c0,0.83,0.33,1.62,0.93,2.21c0.59,0.59,1.4,0.92,2.24,0.92c0.84,0,1.65-0.33,2.24-0.92
	C119.94,91.42,120.28,90.62,120.28,89.79 M121.42,89.79c0,1.13-0.46,2.21-1.27,3.01c-0.81,0.8-1.91,1.25-3.05,1.25
	c-1.15,0-2.24-0.45-3.05-1.25c-0.81-0.8-1.26-1.88-1.26-3.01s0.46-2.21,1.26-3.01c0.81-0.8,1.91-1.25,3.05-1.25
	c1.14,0,2.24,0.45,3.05,1.25C120.97,87.58,121.42,88.66,121.42,89.79"/>
<path class="st0" d="M140.91,85.61c0.56,0.35,0.95,0.78,1.18,1.29c-0.09,0.33-0.25,0.51-0.5,0.55c-0.12,0.02-0.23-0.01-0.32-0.1
	c-0.18-0.16-0.38-0.32-0.6-0.47c-0.99-0.71-2.17,0.59-1.53,1.41c0.12,0.16,0.4,0.31,0.83,0.47c0.82,0.31,1.52,0.76,2.09,1.35
	c1.51,2.89-2.01,5.24-4.3,3.04c-0.09-0.11-0.17-0.23-0.23-0.35c-0.07-0.15-0.08-0.28-0.04-0.4c0.07-0.17,0.22-0.31,0.45-0.4
	c0.52,0.19,0.75,0.62,1.23,0.79c1.81,0.68,2.93-1.88,1.38-2.56c-0.79-0.34-1.86-0.57-2.37-1.39c-0.56-0.91-0.43-1.82,0.4-2.75
	C139.15,85.6,139.93,85.44,140.91,85.61"/>
<path class="st0" d="M157.32,89.78c0-1.23,0.45-2.23,1.32-3.02c1.62-1.46,3.49-1.59,5.59-0.41c0.1,0.06,0.18,0.14,0.24,0.23
	c0.06,0.1,0.08,0.21,0.08,0.32c-0.01,0.1-0.02,0.19-0.06,0.26c-0.18,0.34-0.43,0.4-0.76,0.2c-1.51-0.9-2.86-0.9-4.05-0.01
	c-0.81,0.61-1.22,1.42-1.22,2.43c-0.01,1.01,0.4,1.82,1.2,2.44c1.18,0.9,2.53,0.91,4.04,0.02c0.33-0.19,0.58-0.12,0.76,0.22
	c0.03,0.07,0.05,0.15,0.05,0.26c0,0.11-0.03,0.22-0.08,0.32c-0.06,0.1-0.14,0.18-0.24,0.23c-2.12,1.16-3.98,1.01-5.59-0.46
	C157.75,92.01,157.32,91,157.32,89.78"/>
<path class="st0" d="M203.18,89.77c0-1.22,0.45-2.23,1.32-3.02c1.62-1.46,3.49-1.59,5.59-0.41c0.1,0.06,0.18,0.14,0.24,0.24
	s0.08,0.21,0.08,0.32c-0.01,0.1-0.02,0.19-0.06,0.26c-0.18,0.33-0.43,0.4-0.76,0.21c-1.5-0.9-2.85-0.9-4.04-0.01
	c-0.82,0.61-1.22,1.42-1.23,2.43c-0.01,1.01,0.4,1.83,1.2,2.44c1.18,0.9,2.53,0.91,4.04,0.03c0.33-0.19,0.58-0.12,0.75,0.21
	c0.03,0.07,0.05,0.15,0.05,0.26c0,0.11-0.03,0.22-0.09,0.32c-0.06,0.1-0.14,0.18-0.24,0.23c-2.12,1.16-3.98,1.01-5.59-0.47
	C203.61,92.01,203.18,91,203.18,89.77"/>
<path class="st0" d="M227.36,89.78c0,1.01,0.4,1.83,1.21,2.44c1.18,0.9,2.53,0.91,4.04,0.02c0.33-0.19,0.58-0.12,0.76,0.21
	c0.03,0.07,0.05,0.15,0.05,0.26c0,0.11-0.03,0.22-0.08,0.32s-0.14,0.18-0.24,0.23c-2.11,1.16-3.98,1.01-5.59-0.46
	c-0.87-0.8-1.3-1.81-1.3-3.03c0.01-1.22,0.45-2.23,1.32-3.02c1.62-1.46,3.48-1.6,5.59-0.42c0.1,0.06,0.18,0.14,0.24,0.23
	c0.06,0.1,0.08,0.21,0.08,0.32c0,0.1-0.02,0.19-0.05,0.26c-0.18,0.33-0.43,0.4-0.76,0.2c-1.51-0.9-2.85-0.9-4.05-0.01
	C227.78,87.96,227.37,88.77,227.36,89.78"/>
<path class="st0" d="M247.28,85.57h0.03c0.14,0,0.28,0.05,0.38,0.15c0.1,0.1,0.16,0.23,0.16,0.37l0.03,7.4
	c0,0.14-0.05,0.27-0.15,0.37s-0.23,0.15-0.37,0.15h-0.03c-0.14,0-0.28-0.05-0.38-0.15c-0.1-0.1-0.16-0.23-0.16-0.37l-0.03-7.4
	c0-0.14,0.05-0.27,0.15-0.37C247,85.62,247.13,85.57,247.28,85.57"/>
<path class="st0" d="M184.24,90.05c0.3,0,0.54,0,0.71-0.02c0.14-0.01,0.18-0.08,0.13-0.21c-0.2-0.56-0.46-1.21-0.77-1.95
	c-0.01-0.03-0.03-0.04-0.06-0.04c-0.03,0-0.05,0.01-0.07,0.04c-0.32,0.74-0.58,1.39-0.79,1.95c-0.05,0.13,0,0.2,0.14,0.21
	C183.7,90.04,183.93,90.05,184.24,90.05 M184.24,85.58c0.26,0,0.43,0.11,0.52,0.32c0.25,0.59,1.23,3.05,2.92,7.38
	c0.13,0.34,0.03,0.57-0.32,0.7c-0.04,0.01-0.08,0.02-0.12,0.03c-0.32,0.03-0.51-0.04-0.58-0.22l-0.94-2.36
	c-0.05-0.13-0.15-0.19-0.28-0.2c-0.38-0.03-0.78-0.04-1.2-0.04c-0.42,0-0.81,0.01-1.19,0.04c-0.14,0.01-0.23,0.08-0.28,0.2
	l-0.94,2.36c-0.07,0.18-0.27,0.25-0.58,0.22c-0.04,0-0.08-0.01-0.12-0.03c-0.35-0.13-0.46-0.36-0.32-0.7
	c1.69-4.32,2.66-6.78,2.92-7.37C183.81,85.69,183.98,85.58,184.24,85.58"/>
<polygon class="st0" points="257.81,89.87 257.81,90.49 255.93,90.49 255.93,91.58 257.73,91.58 257.73,92.21 255.93,92.21 
	255.93,93.38 257.85,93.38 257.85,94.01 255.13,94.01 255.13,89.87 "/>
<polygon class="st0" points="262.03,89.87 262.03,90.49 260.56,90.49 260.56,94.01 259.76,94.01 259.76,90.49 258.29,90.49 
	258.29,89.87 "/>
<path class="st0" d="M263.78,89.81c0.4,0,0.79,0.1,1.16,0.3v0.71c-0.43-0.26-0.81-0.39-1.14-0.39c-0.2,0-0.36,0.04-0.47,0.12
	c-0.11,0.08-0.17,0.18-0.17,0.31c0,0.16,0.11,0.3,0.32,0.43c0.06,0.04,0.29,0.15,0.68,0.33c0.34,0.16,0.59,0.34,0.73,0.53
	c0.15,0.2,0.23,0.43,0.23,0.71c0,0.36-0.13,0.64-0.39,0.86c-0.26,0.22-0.59,0.33-0.99,0.33c-0.27,0-0.49-0.03-0.68-0.09
	c-0.19-0.06-0.4-0.16-0.64-0.3v-0.79c0.44,0.37,0.86,0.55,1.25,0.55c0.2,0,0.35-0.04,0.47-0.13c0.12-0.09,0.18-0.2,0.18-0.34
	c0-0.19-0.11-0.35-0.32-0.47c-0.17-0.1-0.4-0.21-0.67-0.34c-0.33-0.15-0.57-0.32-0.73-0.52c-0.16-0.2-0.24-0.43-0.24-0.69
	c0-0.35,0.13-0.62,0.39-0.83C263.01,89.92,263.36,89.81,263.78,89.81"/>
</svg>
