<?xml version="1.0" encoding="UTF-8"?>
<svg id="Livello_2" data-name="Livello 2" xmlns="http://www.w3.org/2000/svg" viewBox="0 0 171.02 64.05">
  <defs>
    <style>
      .cls-1 {
        fill: #fff;
      }
    </style>
  </defs>
  <g id="Livello_1-2" data-name="Livello 1">
    <g>
      <g>
        <g>
          <path class="cls-1" d="M1.18,26.08c1.83,0,2.63-.23,2.63-1.64V3.9c0-1.41-.8-1.64-2.63-1.64v-.86h9.86v.86h-1.18c-1.83,0-2.63.23-2.63,1.64v21.74h6.81c2.08,0,3.47-1.6,4.01-5.5h1.09l-.74,6.8H1.18v-.86Z"/>
          <path class="cls-1" d="M29.24,2.26c-1.83,0-2.63.23-2.63,1.64v14.64c0,3.55,1.26,7.58,5.71,7.58,4.08,0,6.11-3.42,6.11-7.22V3.9c0-1.41-1.09-1.64-2.92-1.64v-.86h6.76v.86c-1.83,0-2.67.23-2.67,1.64v14.93c0,4.98-2.82,8.59-7.84,8.59-6.07,0-8.54-4.05-8.54-9.28V3.9c0-1.41-.8-1.64-2.63-1.64v-.86h8.67v.86Z"/>
          <path class="cls-1" d="M46.55,26.94v-.86c1.83,0,2.63-.23,2.63-1.64V3.9c0-1.41-.8-1.64-2.63-1.64v-.86h8.64v.86c-1.83,0-2.63.23-2.63,1.64v20.54c0,1.41.8,1.64,2.63,1.64v.86h-8.64Z"/>
          <path class="cls-1" d="M74.97,8.77h-1.09c0-4.62-2.21-6.72-5.59-6.72-2.69,0-4.77,2.19-4.77,4.94,0,1.95,1.11,3.45,3.05,4.22l3.7,1.45c3.65,1.43,6.41,3.28,6.41,7.2,0,5.04-3.65,7.56-8.34,7.56-3.03,0-5.31-.92-7.52-2.31v-7.1h1.01c0,5.63,2.37,8.15,6.74,8.15,2.96,0,4.92-2.1,4.92-5.1,0-2.46-1.2-3.93-4.05-5.04l-3.97-1.55c-2.9-1.13-4.81-3.32-4.81-6.28,0-4.5,3.61-7.27,7.71-7.27,2.12,0,4.45.63,6.58,1.98v5.86Z"/>
          <path class="cls-1" d="M96.01,8.77h-1.09c0-4.62-2.21-6.72-5.59-6.72-2.69,0-4.77,2.19-4.77,4.94,0,1.95,1.11,3.45,3.05,4.22l3.7,1.45c3.65,1.43,6.41,3.28,6.41,7.2,0,5.04-3.65,7.56-8.34,7.56-3.03,0-5.31-.92-7.52-2.31v-7.1h1.01c0,5.63,2.37,8.15,6.74,8.15,2.96,0,4.92-2.1,4.92-5.1,0-2.46-1.2-3.93-4.05-5.04l-3.97-1.55c-2.9-1.13-4.81-3.32-4.81-6.28,0-4.5,3.61-7.27,7.71-7.27,2.12,0,4.45.63,6.59,1.98v5.86Z"/>
        </g>
        <g>
          <rect class="cls-1" x="128.73" width="28.35" height="1.42"/>
          <rect class="cls-1" x="128.73" y="2.83" width="28.35" height="1.42"/>
          <rect class="cls-1" x="136.53" y="5.67" width="12.76" height="1.42"/>
          <rect class="cls-1" x="137.94" y="8.5" width="1.42" height="19.84"/>
          <rect class="cls-1" x="140.78" y="8.5" width="1.42" height="19.84"/>
          <rect class="cls-1" x="143.61" y="8.5" width="1.42" height="19.84"/>
          <rect class="cls-1" x="146.45" y="8.5" width="1.42" height="19.84"/>
          <path class="cls-1" d="M136.53,28.35v-12.77c0-.72,0-1.35,0-1.83h0c.02-2.19.03-3.51-.28-4.37-.59-1.87-2.33-3.18-4.25-3.18-.35,0-.7.05-1.04.13-1.05.28-1.98,1.02-2.48,2-.47.91-.54,1.92-.19,2.85.43,1.15,1.55,1.95,2.8,2h.1c1.01,0,1.83-.53,2.25-1.46.25-.54.27-1.19.06-1.74,0,0-.21-.64-1.01-1.22h-.01s0,0,0,0l-.93.93h-.01s.02.02.02.02c.29.17.64.48.69.93.03.27-.07.48-.07.48-.2.43-.52.63-.98.63h-.04c-.69-.03-1.28-.45-1.52-1.08-.2-.55-.16-1.15.12-1.7.32-.63.92-1.1,1.59-1.28.22-.06.45-.09.68-.09,1.3,0,2.49.91,2.9,2.21.22.62.21,1.73.21,3.74v.42s0,.04,0,.04c0,.49,0,.99,0,1.55v12.77h1.42Z"/>
          <path class="cls-1" d="M150.7,28.35v-12.77c0-.56,0-1.06,0-1.55v-.04s0-.42,0-.42c0-2.01-.01-3.12.21-3.74.41-1.3,1.6-2.21,2.9-2.21.23,0,.46.03.68.09.67.18,1.26.65,1.59,1.28.28.55.33,1.15.12,1.7-.24.63-.84,1.05-1.52,1.08h-.04c-.46,0-.78-.21-.98-.63,0,0-.1-.2-.07-.48.05-.46.4-.76.69-.93h.02s-.01-.02-.01-.02l-.93-.93h0s-.01,0-.01,0c-.8.58-1.01,1.22-1.01,1.22-.21.55-.19,1.2.06,1.74.43.93,1.25,1.46,2.25,1.46h.1c1.25-.05,2.37-.85,2.8-2,.35-.93.28-1.94-.19-2.85-.5-.97-1.43-1.72-2.48-2-.34-.09-.69-.13-1.04-.13-1.91,0-3.66,1.31-4.25,3.18-.3.86-.29,2.18-.28,4.36h0c0,.48,0,1.11,0,1.83v12.77h1.42Z"/>
        </g>
      </g>
      <g>
        <path class="cls-1" d="M0,63.16v-1.46c1.25.68,2.63,1.02,4.03,1.02,1.61,0,2.9-.68,2.9-2.48,0-3.18-6.65-3.03-6.65-7.29,0-2.37,1.89-3.62,4.11-3.62,1.27,0,2.35.25,3.35.74v1.36c-.89-.53-2.1-.85-3.24-.85-1.44,0-2.61.72-2.61,2.18,0,3.35,6.74,3.24,6.74,7.57,0,2.14-1.84,3.73-4.58,3.73-1.36,0-2.78-.28-4.05-.89Z"/>
        <path class="cls-1" d="M10.49,59.22c0-3.05,1.93-4.81,4.22-4.81.85,0,1.55.13,2.31.45v1.17c-.7-.28-1.36-.4-1.95-.4-1.74,0-3.01,1.36-3.01,3.67s1.33,3.56,3.14,3.56c.61,0,1.31-.11,1.99-.34v1.19c-.61.25-1.55.36-2.25.36-2.56,0-4.45-1.72-4.45-4.83Z"/>
        <path class="cls-1" d="M27.47,62.99v.95c-.21.06-.38.06-.57.06-.98,0-1.57-.42-1.76-1.61-.55,1.04-1.72,1.65-2.92,1.65-1.82,0-2.88-1.14-2.88-3.67v-5.59h1.48v5.3c0,2.12.87,2.75,1.84,2.75,1.33,0,2.42-1.25,2.42-3.64v-4.41h1.48v6.8c0,.97.21,1.4.72,1.4h.19Z"/>
        <path class="cls-1" d="M29.17,59.18c0-2.95,1.7-4.79,3.94-4.79s3.96,1.84,3.96,4.79-1.63,4.88-3.96,4.88-3.94-1.84-3.94-4.88ZM35.47,59.18c0-2.46-1.04-3.65-2.33-3.65s-2.37,1.19-2.37,3.65,1.06,3.75,2.37,3.75,2.33-1.23,2.33-3.75Z"/>
        <path class="cls-1" d="M39.56,61.45v-11.85h1.48v11.87c0,1.29.3,1.53.83,1.55.04,0,.11,0,.17-.02v1.04c-.17.02-.34.02-.57.02-1.12,0-1.91-.57-1.91-2.61Z"/>
        <path class="cls-1" d="M51.47,62.89v.95c-.3.11-.59.17-.87.17-.76,0-1.36-.45-1.4-1.5-.64,1.12-1.78,1.55-2.9,1.55-1.55,0-2.8-.93-2.8-2.5,0-2.69,3.39-3.29,5.6-3.33v-.62c0-1.44-.85-2.01-2.16-2.01-.87,0-1.86.32-2.71.87v-1.21c.95-.55,2.03-.85,3.05-.85,1.91,0,3.31.98,3.31,3.16v4.01c0,.91.13,1.36.61,1.36.08,0,.17-.02.28-.04ZM49.1,59.24c-2.56.02-4.11.81-4.11,2.25,0,.93.72,1.46,1.7,1.46,1.23,0,2.42-.91,2.42-2.65v-1.06Z"/>
        <path class="cls-1" d="M57.39,59.26c0-2.5,1.21-4.85,3.58-4.85,1.04,0,2.18.55,2.71,1.61v-6.42h1.48v11.97c0,.91.11,1.36.61,1.36.08,0,.17-.02.25-.04v.95c-.3.11-.59.17-.87.17-.74,0-1.33-.47-1.44-1.48v-.34c-.64,1.29-1.7,1.87-2.78,1.87-2.06,0-3.54-1.91-3.56-4.79ZM63.73,59.03c0-2.2-1.17-3.41-2.4-3.41-1.48,0-2.4,1.76-2.4,3.67,0,2.23,1.1,3.54,2.35,3.54s2.44-1.36,2.44-3.79Z"/>
        <path class="cls-1" d="M68.24,50.68c0-.53.4-1,.89-1,.45,0,.87.47.87,1,0,.49-.42.91-.87.91-.49,0-.89-.42-.89-.91ZM68.39,54.79h1.48v8.99h-1.48v-8.99Z"/>
        <path class="cls-1" d="M77.02,56.68c0-4.37,2.25-7.33,6.15-7.33.98,0,2.2.25,2.99.61v1.4c-.85-.45-1.97-.72-2.95-.72-2.4,0-4.45,1.5-4.45,6s2.03,6.08,4.22,6.08c1.12,0,2.23-.38,2.82-1.1v-4.35h-2.4v-1.12h3.98v6.12c-1.17,1.19-2.95,1.74-4.54,1.74-3.43-.02-5.83-2.61-5.83-7.33Z"/>
        <path class="cls-1" d="M90.4,50.68c0-.53.4-1,.89-1,.45,0,.87.47.87,1,0,.49-.42.91-.87.91-.49,0-.89-.42-.89-.91ZM90.54,54.79h1.48v8.99h-1.48v-8.99Z"/>
        <path class="cls-1" d="M94.55,59.18c0-2.95,1.7-4.79,3.94-4.79s3.96,1.84,3.96,4.79-1.63,4.88-3.96,4.88-3.94-1.84-3.94-4.88ZM100.85,59.18c0-2.46-1.04-3.65-2.33-3.65s-2.37,1.19-2.37,3.65,1.06,3.75,2.37,3.75,2.33-1.23,2.33-3.75Z"/>
        <path class="cls-1" d="M104.98,54.79h1.48v1.21c.45-.95,1.33-1.53,2.37-1.53.32,0,.64.02.95.13v1.25c-.25-.08-.61-.17-.95-.17-1.55,0-2.37,1.23-2.37,3.52v4.58h-1.48v-8.99Z"/>
        <path class="cls-1" d="M111.55,54.79h1.48v1.4c.55-1.12,1.7-1.78,2.92-1.78,1.87,0,2.97,1.14,2.97,3.71v5.66h-1.48v-5.34c0-2.18-.91-2.82-1.95-2.82-1.36,0-2.46,1.38-2.46,3.69v4.47h-1.48v-8.99Z"/>
        <path class="cls-1" d="M129.17,62.89v.95c-.3.11-.59.17-.87.17-.76,0-1.36-.45-1.4-1.5-.64,1.12-1.78,1.55-2.9,1.55-1.55,0-2.8-.93-2.8-2.5,0-2.69,3.39-3.29,5.6-3.33v-.62c0-1.44-.85-2.01-2.16-2.01-.87,0-1.87.32-2.71.87v-1.21c.95-.55,2.03-.85,3.05-.85,1.91,0,3.31.98,3.31,3.16v4.01c0,.91.13,1.36.61,1.36.08,0,.17-.02.28-.04ZM126.79,59.24c-2.56.02-4.11.81-4.11,2.25,0,.93.72,1.46,1.7,1.46,1.23,0,2.42-.91,2.42-2.65v-1.06Z"/>
        <path class="cls-1" d="M131.27,61.45v-11.85h1.48v11.87c0,1.29.3,1.53.83,1.55.04,0,.11,0,.17-.02v1.04c-.17.02-.34.02-.57.02-1.12,0-1.91-.57-1.91-2.61Z"/>
        <path class="cls-1" d="M135.83,50.68c0-.53.4-1,.89-1,.45,0,.87.47.87,1,0,.49-.42.91-.87.91-.49,0-.89-.42-.89-.91ZM135.98,54.79h1.48v8.99h-1.48v-8.99Z"/>
        <path class="cls-1" d="M139.88,63.42v-1.25c.83.42,1.93.72,2.84.72,1.04,0,1.74-.45,1.74-1.29,0-1.93-4.58-2.08-4.58-4.81,0-1.55,1.57-2.38,3.09-2.38.89,0,1.74.17,2.46.51v1.12c-.64-.3-1.53-.53-2.33-.53-.89,0-1.72.4-1.72,1.23,0,1.95,4.64,2.01,4.64,4.83,0,1.44-1.27,2.48-3.14,2.48-1.02,0-2.06-.19-3.01-.64Z"/>
        <path class="cls-1" d="M160.69,58.12v5.66h-1.48v-5.34c0-2.18-.83-2.82-1.78-2.82-1.17,0-2.18,1.31-2.18,3.69v4.47h-1.48v-5.34c0-2.18-.83-2.82-1.78-2.82-1.21,0-2.18,1.38-2.18,3.69v4.47h-1.48v-8.99h1.48v1.4c.44-1.12,1.53-1.78,2.65-1.78,1.29,0,2.23.66,2.61,1.99.51-1.4,1.74-1.99,2.82-1.99,1.78,0,2.82,1.14,2.82,3.71Z"/>
        <path class="cls-1" d="M163.11,59.18c0-2.95,1.7-4.79,3.94-4.79s3.96,1.84,3.96,4.79-1.63,4.88-3.96,4.88-3.94-1.84-3.94-4.88ZM169.41,59.18c0-2.46-1.04-3.65-2.33-3.65s-2.37,1.19-2.37,3.65,1.06,3.75,2.37,3.75,2.33-1.23,2.33-3.75Z"/>
      </g>
    </g>
  </g>
</svg>